<?xml version="1.0" encoding="utf-8"?>
<svg viewBox="145.045 543.675 24 23.912" width="24" height="23.912" xmlns="http://www.w3.org/2000/svg">
  <path d="M 154.146 567.322 L 154.146 559.342 L 151.672 559.342 L 151.672 555.675 L 154.146 555.675 L 154.146 554.095 C 154.146 550.01 155.994 548.117 160.004 548.117 C 160.405 548.117 160.959 548.159 161.472 548.22 C 161.856 548.259 162.237 548.324 162.613 548.415 L 162.613 551.74 C 162.395 551.719 162.178 551.707 161.96 551.704 C 161.715 551.697 161.471 551.694 161.227 551.695 C 160.52 551.695 159.968 551.791 159.552 552.004 C 159.272 552.144 159.037 552.359 158.873 552.626 C 158.615 553.046 158.499 553.621 158.499 554.378 L 158.499 555.675 L 162.418 555.675 L 162.032 557.778 L 161.745 559.342 L 158.499 559.342 L 158.499 567.587 C 164.441 566.869 169.045 561.81 169.045 555.675 C 169.045 549.048 163.672 543.675 157.045 543.675 C 150.418 543.675 145.045 549.048 145.045 555.675 C 145.045 561.303 148.919 566.025 154.146 567.322 L 154.146 567.322 Z" style="fill: rgb(255, 255, 255);"/>
</svg>