<?xml version="1.0" encoding="utf-8"?>
<svg viewBox="254.2933 346.4714 24.0001 23.9999" width="24.0001" height="23.9999" xmlns="http://www.w3.org/2000/svg">
  <path d="M 261.323 346.555 C 260.046 346.616 259.174 346.819 258.412 347.119 C 257.623 347.426 256.955 347.839 256.289 348.506 C 255.624 349.174 255.214 349.843 254.909 350.633 C 254.614 351.397 254.414 352.27 254.357 353.547 C 254.301 354.825 254.288 355.236 254.295 358.494 C 254.301 361.753 254.315 362.162 254.377 363.442 C 254.438 364.718 254.641 365.59 254.941 366.352 C 255.249 367.141 255.661 367.81 256.329 368.475 C 256.996 369.141 257.665 369.55 258.457 369.855 C 259.22 370.15 260.093 370.351 261.37 370.407 C 262.648 370.463 263.059 370.476 266.317 370.47 C 269.574 370.464 269.985 370.449 271.264 370.389 C 272.544 370.328 273.411 370.123 274.174 369.825 C 274.963 369.517 275.632 369.105 276.297 368.437 C 276.962 367.769 277.372 367.099 277.677 366.309 C 277.972 365.546 278.173 364.673 278.229 363.396 C 278.285 362.115 278.298 361.707 278.292 358.448 C 278.285 355.19 278.271 354.782 278.21 353.502 C 278.149 352.222 277.946 351.353 277.647 350.59 C 277.338 349.801 276.927 349.133 276.259 348.467 C 275.591 347.801 274.921 347.392 274.131 347.088 C 273.367 346.792 272.495 346.591 271.217 346.536 C 269.94 346.481 269.529 346.466 266.27 346.473 C 263.011 346.479 262.603 346.493 261.323 346.555 M 261.463 368.248 C 260.293 368.198 259.658 368.003 259.235 367.84 C 258.674 367.624 258.275 367.363 257.853 366.945 C 257.431 366.528 257.172 366.127 256.953 365.567 C 256.788 365.144 256.59 364.509 256.536 363.339 C 256.476 362.075 256.464 361.695 256.457 358.491 C 256.45 355.288 256.462 354.908 256.517 353.643 C 256.567 352.474 256.763 351.838 256.925 351.415 C 257.141 350.854 257.402 350.455 257.82 350.034 C 258.239 349.612 258.639 349.352 259.199 349.133 C 259.622 348.968 260.256 348.772 261.426 348.716 C 262.691 348.656 263.07 348.644 266.274 348.637 C 269.477 348.63 269.857 348.642 271.123 348.698 C 272.292 348.749 272.928 348.943 273.351 349.106 C 273.912 349.322 274.311 349.581 274.733 350.001 C 275.154 350.42 275.414 350.819 275.633 351.38 C 275.799 351.801 275.995 352.436 276.05 353.606 C 276.11 354.872 276.124 355.251 276.13 358.454 C 276.136 361.657 276.124 362.037 276.069 363.302 C 276.018 364.472 275.824 365.108 275.661 365.531 C 275.445 366.092 275.184 366.491 274.765 366.913 C 274.346 367.334 273.947 367.594 273.387 367.813 C 272.965 367.978 272.329 368.175 271.161 368.23 C 269.895 368.29 269.516 368.302 266.312 368.309 C 263.107 368.316 262.729 368.303 261.464 368.248 M 271.246 352.058 C 271.248 353.166 272.449 353.857 273.408 353.301 C 274.367 352.745 274.365 351.36 273.404 350.807 C 273.185 350.681 272.936 350.615 272.683 350.615 C 271.888 350.617 271.245 351.263 271.246 352.058 M 260.132 358.483 C 260.138 361.887 262.902 364.639 266.305 364.633 C 269.707 364.626 272.462 361.863 272.455 358.459 C 272.449 355.056 269.684 352.303 266.281 352.31 C 262.878 352.316 260.125 355.081 260.132 358.483 M 262.293 358.479 C 262.287 355.4 265.616 353.469 268.286 355.003 C 270.956 356.537 270.963 360.386 268.3 361.931 C 267.693 362.284 267.003 362.47 266.301 362.471 C 264.092 362.476 262.297 360.688 262.293 358.479" style="fill: rgb(255, 255, 255);"/>
</svg>