<?xml version="1.0" encoding="utf-8"?>
<svg viewBox="382.318 479.322 24 16.91" width="24" height="16.91" xmlns="http://www.w3.org/2000/svg">
  <path d="M 405.816 481.963 C 405.541 480.924 404.732 480.11 403.694 479.827 C 401.823 479.322 394.318 479.322 394.318 479.322 C 394.318 479.322 386.813 479.322 384.941 479.827 C 383.904 480.11 383.096 480.924 382.82 481.963 C 382.318 483.847 382.318 487.777 382.318 487.777 C 382.318 487.777 382.318 491.707 382.82 493.591 C 383.096 494.63 383.905 495.444 384.942 495.727 C 386.813 496.232 394.318 496.232 394.318 496.232 C 394.318 496.232 401.823 496.232 403.695 495.727 C 404.733 495.445 405.542 494.631 405.817 493.591 C 406.318 491.707 406.318 487.777 406.318 487.777 C 406.318 487.777 406.318 483.847 405.816 481.963 Z M 391.863 491.345 L 391.863 484.209 L 398.136 487.777 L 391.863 491.345 Z" style="fill: rgb(255, 255, 255);"/>
</svg>